<svg width="93" height="25" viewBox="0 0 93 25" fill="none" xmlns="http://www.w3.org/2000/svg">
<path d="M10.496 1.28C5.344 1.28 3.264 4.512 3.264 7.104C3.264 15.136 17.024 12.96 16.192 19.776C15.936 21.792 13.664 23.552 10.944 23.552C6.752 23.552 3.776 20.64 2.144 17.376H1.92L0.96 21.024C3.456 22.912 5.824 24.192 9.632 24.192C14.176 24.192 17.6 21.504 17.6 17.696C17.6 9.696 3.872 11.808 4.48 5.408C4.672 3.488 6.496 1.696 9.664 1.696C12.192 1.696 14.528 3.328 16.352 7.616H16.576L17.536 4.288C15.648 2.816 12.96 1.28 10.496 1.28ZM39.3625 4.672L42.1145 1.952L41.9225 1.76L39.2025 4.512C37.0905 2.528 34.2425 1.28 31.1385 1.28C24.8345 1.28 19.5225 6.4 19.5225 12.736C19.5225 15.872 20.8345 18.72 22.9145 20.768L20.1945 23.52L20.3545 23.68L23.1065 20.96C25.2185 22.944 28.0665 24.192 31.1385 24.192C37.4745 24.192 42.7545 19.04 42.7545 12.736C42.7545 9.6 41.4745 6.752 39.3625 4.672ZM22.5945 15.328C20.8985 9.696 22.5305 3.68 27.8745 2.048C31.7785 0.831999 35.3945 2.72 37.6985 6.016L24.4505 19.264C23.6825 18.08 23.0425 16.768 22.5945 15.328ZM34.4025 23.424C30.4985 24.608 26.9145 22.752 24.6105 19.456L37.8265 6.208C38.6265 7.36 39.2665 8.704 39.6825 10.112C41.4105 15.776 39.7465 21.792 34.4025 23.424ZM58.8548 20C57.3508 21.952 54.7268 23.776 51.1748 23.776H48.2628V3.744C48.2628 2.592 48.4868 2.144 48.9668 1.856C48.9668 1.792 48.9668 1.6 48.9668 1.6H44.9988C44.9988 1.6 44.9988 1.792 44.9988 1.856C45.5108 2.144 45.7348 2.592 45.7348 3.744V21.888C45.7348 23.008 45.5108 23.488 44.9988 23.776C44.9988 23.84 44.9988 24 44.9988 24H58.3428L59.0468 20.128L58.8548 20ZM77.3333 1.856V1.6H73.5253V1.856C74.9013 3.296 74.7413 4.864 73.7173 7.744L69.0453 20.928L63.3493 6.144C62.4533 3.808 62.1973 2.688 62.9973 1.856V1.6H58.1013V1.856C59.2853 3.296 60.4693 5.28 61.4293 7.744C62.3893 10.24 67.7013 24 67.7013 24H70.2293L69.1733 21.248L73.9733 7.744C75.0293 4.768 75.9573 3.296 77.3333 1.856ZM92.4403 20C90.9363 21.952 88.2803 23.776 84.7603 23.776H82.1683V11.552L90.2323 12.224V10.592L82.1683 11.296V1.856H84.4083C87.9603 1.856 89.9443 3.616 91.4163 5.28L91.5763 5.152L90.9043 1.6H78.9363C78.9363 1.6 78.9363 1.792 78.9363 1.856C79.4163 2.144 79.6403 2.624 79.6403 3.744V21.888C79.6403 23.008 79.4163 23.488 78.9363 23.776C78.9363 23.84 78.9363 24 78.9363 24H91.9283L92.6323 20.128L92.4403 20Z" fill="white"/>
</svg>
